<?xml version="1.0" standalone="no"?>
<!DOCTYPE svg PUBLIC "-//W3C//DTD SVG 20010904//EN"
 "http://www.w3.org/TR/2001/REC-SVG-20010904/DTD/svg10.dtd">
<svg version="1.0" xmlns="http://www.w3.org/2000/svg"
 width="310.000000pt" height="310.000000pt" viewBox="0 0 310.000000 310.000000"
 preserveAspectRatio="xMidYMid meet">
<metadata>
Created by potrace 1.11, written by Peter Selinger 2001-2013
</metadata>
<g transform="translate(0.000000,310.000000) scale(0.100000,-0.100000)"
fill="#000000" stroke="none">
<path d="M1125 2862 c-214 -125 -512 -299 -662 -385 l-271 -158 0 -773 -1
-773 187 -108 c103 -60 239 -139 302 -176 63 -36 156 -90 205 -119 50 -29 108
-62 130 -75 22 -12 145 -84 274 -159 l233 -136 312 182 c171 99 325 189 341
198 17 10 175 102 353 205 l322 187 0 644 c0 422 -3 644 -10 645 -5 0 -23 1
-40 1 -16 0 -37 -1 -45 -1 -13 -1 -15 -76 -15 -613 l-1 -613 -202 -116 c-111
-64 -353 -205 -537 -312 -417 -242 -411 -239 -418 -232 -3 3 -5 106 -5 230 l1
225 -54 0 c-49 0 -54 -2 -55 -22 0 -13 0 -116 -1 -230 0 -115 -3 -208 -7 -208
-14 0 -61 25 -61 33 0 4 -4 7 -9 7 -7 0 -1019 584 -1028 594 -1 1 28 19 65 39
37 21 74 42 82 47 8 6 98 57 199 114 l183 103 160 -93 c88 -52 162 -94 164
-94 3 0 17 -8 32 -19 15 -10 82 -50 149 -89 l122 -70 88 49 c48 28 95 54 103
60 14 8 66 39 348 202 60 34 109 56 118 53 17 -6 352 -203 370 -217 7 -6 22 8
41 39 l30 48 -201 120 -201 121 -2 224 c-1 123 -2 234 -2 247 -1 20 -6 22 -55
22 l-54 0 0 -202 c0 -112 -1 -225 -1 -253 l-1 -50 -87 -50 c-47 -27 -107 -62
-132 -76 -25 -14 -101 -59 -169 -99 -68 -39 -126 -69 -129 -67 -4 5 -7 393 -4
562 l1 41 137 79 c76 44 147 85 158 91 11 6 180 105 375 219 195 114 422 245
503 292 81 48 144 90 140 94 -8 8 -125 77 -538 317 -590 343 -815 473 -827
477 -7 3 -188 -98 -403 -223z m343 -237 l0 -305 -287 -166 c-157 -92 -291
-167 -296 -167 -6 0 -40 17 -75 38 -36 21 -78 45 -95 55 -16 9 -70 40 -120 69
-49 28 -92 51 -95 51 -3 0 -16 -21 -29 -46 -21 -38 -22 -47 -10 -55 8 -5 94
-55 191 -111 l178 -103 0 -262 c0 -291 -6 -265 60 -265 53 0 49 -14 52 231 l3
228 260 -151 260 -152 2 -302 c0 -166 -3 -302 -7 -302 -5 0 -57 29 -117 63
-318 187 -442 257 -451 257 -6 0 -91 -46 -189 -101 -98 -56 -193 -110 -211
-121 -18 -10 -65 -36 -103 -58 -39 -22 -74 -40 -78 -40 -5 0 -8 302 -8 671
l-1 670 37 24 c35 22 1123 654 1127 655 1 0 2 -137 2 -305z m677 -24 c286
-167 523 -306 527 -310 4 -4 -109 -75 -253 -158 l-260 -152 -32 18 c-98 56
-543 314 -546 317 -3 2 -4 341 -2 558 1 58 1 58 24 44 12 -9 256 -151 542
-317z m-599 -390 c8 -8 98 -61 407 -239 42 -24 79 -48 82 -52 3 -4 -112 -76
-254 -159 l-259 -151 -258 151 c-143 83 -260 152 -262 153 -5 6 508 305 524
306 5 0 14 -4 20 -9z"/>
</g>
</svg>
