<?xml version="1.0" standalone="no"?>
<!DOCTYPE svg PUBLIC "-//W3C//DTD SVG 20010904//EN"
 "http://www.w3.org/TR/2001/REC-SVG-20010904/DTD/svg10.dtd">
<svg version="1.0" xmlns="http://www.w3.org/2000/svg"
 width="1586.000000pt" height="1586.000000pt" viewBox="0 0 1586.000000 1586.000000"
 preserveAspectRatio="xMidYMid meet">
<metadata>
Created by potrace 1.11, written by Peter Selinger 2001-2013
</metadata>
<g transform="translate(0.000000,1586.000000) scale(0.100000,-0.100000)"
fill="#000000" stroke="none">
<path d="M2454 15851 c-38 -16 -66 -62 -62 -101 4 -41 2064 -3631 2104 -3667
62 -57 182 0 184 86 0 13 -15 52 -34 85 -112 204 -2072 3555 -2089 3573 -25
26 -72 37 -103 24z"/>
<path d="M3080 11119 c-324 -28 -634 -108 -885 -228 -429 -206 -758 -568 -899
-992 -122 -364 -128 -814 -15 -1136 159 -456 491 -829 936 -1053 149 -74 342
-145 1138 -417 666 -227 957 -385 1150 -626 186 -232 257 -535 210 -891 -37
-282 -149 -517 -336 -705 -281 -283 -648 -421 -1118 -421 -224 0 -383 30 -634
121 -273 99 -447 209 -648 409 -277 275 -558 718 -700 1100 l-33 90 -49 0 -48
0 5 -62 c3 -35 8 -286 11 -558 3 -272 8 -645 12 -827 l6 -333 41 0 c40 1 43 4
101 82 83 112 193 228 216 228 11 0 83 -33 162 -74 374 -195 804 -288 1402
-303 762 -18 1339 122 1779 434 44 32 140 117 212 188 353 352 512 769 491
1290 -7 168 -26 296 -63 432 -126 466 -455 835 -965 1082 -180 87 -281 125
-849 316 -542 182 -725 251 -925 350 -166 81 -290 162 -420 274 -253 218 -365
475 -365 837 0 202 24 343 89 510 96 248 301 470 551 595 338 169 797 203
1156 84 424 -140 819 -499 1109 -1005 70 -123 177 -346 216 -450 l34 -90 53 0
52 0 0 825 0 825 -52 0 c-53 -1 -53 -1 -88 -53 -59 -87 -188 -245 -210 -257
-18 -10 -34 -3 -118 53 -197 132 -440 228 -757 301 -251 58 -657 81 -955 55z"/>
<path d="M6430 10986 l0 -45 48 -6 c94 -13 278 -58 360 -87 106 -39 212 -108
285 -187 67 -73 78 -92 106 -186 57 -190 55 -128 58 -1910 4 -1646 -11 -2831
-37 -3105 -15 -156 -46 -329 -70 -393 -38 -102 -180 -210 -380 -288 -93 -37
-275 -89 -362 -104 -37 -6 -38 -7 -38 -50 l0 -45 1325 0 1325 0 0 44 0 43 -76
13 c-123 19 -241 57 -360 115 -90 44 -123 66 -181 124 -42 41 -82 92 -98 124
-59 122 -58 95 -62 1470 l-4 1257 1770 0 1771 0 0 -762 c-1 -1454 -22 -1910
-95 -2020 -72 -109 -304 -226 -550 -276 -83 -17 -247 -42 -277 -42 -5 0 -8
-20 -8 -45 l0 -45 1375 0 1375 0 0 44 0 44 -47 7 c-179 25 -389 86 -487 141
-63 35 -166 132 -204 192 -74 115 -81 205 -92 1062 -13 1032 -12 3788 1 4006
21 363 55 472 188 604 116 114 304 201 534 246 l87 17 0 44 0 43 -1350 0
-1350 0 0 -44 0 -44 78 -7 c189 -17 369 -64 464 -121 78 -48 206 -185 251
-271 86 -165 97 -325 104 -1605 l5 -988 -1771 0 -1771 0 0 818 c1 975 12 1494
34 1602 45 216 199 392 419 480 63 25 224 65 340 85 36 6 37 7 37 50 l0 45
-1335 0 -1335 0 0 -44z"/>
<path d="M9459 3771 c-60 -60 -126 65 1018 -1923 1072 -1864 1062 -1848 1118
-1848 61 0 130 71 122 125 -3 17 -480 845 -1061 1841 -795 1363 -1063 1814
-1082 1823 -44 20 -83 13 -115 -18z"/>
</g>
</svg>
