<svg id="Layer_1" data-name="Layer 1" xmlns="http://www.w3.org/2000/svg" viewBox="0 0 59.03 91.44"><defs><style>.cls-1{fill:none;stroke:#000;stroke-linecap:round;stroke-linejoin:round;stroke-width:5px;}</style></defs><path class="cls-1" d="M77,71.61a8.09,8.09,0,0,1-8.1,8.1H31.09a8.1,8.1,0,0,1-8.1-8.1V23a8.11,8.11,0,0,1,8.1-8.11H68.91A8.1,8.1,0,0,1,77,23Z" transform="translate(-20.49 -4.28)"/><circle class="cls-1" cx="29.51" cy="82.19" r="6.75"/><path class="cls-1" d="M44.6,21.64h0Z" transform="translate(-20.49 -4.28)"/><path class="cls-1" d="M68.91,6.78H31.09a8.1,8.1,0,0,0-8.1,8.1V23a8.11,8.11,0,0,1,8.1-8.11H68.91A8.1,8.1,0,0,1,77,23V14.88A8.1,8.1,0,0,0,68.91,6.78Z" transform="translate(-20.49 -4.28)"/><path class="cls-1" d="M68.91,79.71H50a6.76,6.76,0,0,1,0,13.51H68.91a8.09,8.09,0,0,0,8.1-8.1V71.61A8.09,8.09,0,0,1,68.91,79.71Z" transform="translate(-20.49 -4.28)"/><path class="cls-1" d="M43.25,86.47A6.76,6.76,0,0,1,50,79.71H31.09a8.1,8.1,0,0,1-8.1-8.1V85.12a8.1,8.1,0,0,0,8.1,8.1H50A6.75,6.75,0,0,1,43.25,86.47Z" transform="translate(-20.49 -4.28)"/></svg>