<svg id="Layer_1" data-name="Layer 1" xmlns="http://www.w3.org/2000/svg" viewBox="0 0 64 59.27"><defs><style>.cls-1{stroke:#000;stroke-miterlimit:10;stroke-width:2px;}</style></defs><path class="cls-1" d="M60.85,9.92H8A4.59,4.59,0,0,0,3.43,14.5V51.43A4.59,4.59,0,0,0,8,56H24.86L24,60.13c-3.19,1-5.4,2.65-5.4,5v.65c0,.81.78,1.42,1.81,1.42H46.61c1,0,1.8-.61,1.8-1.42v-.65c0-2.34-2.2-4-5.4-5L42.16,56H60.85a4.59,4.59,0,0,0,4.58-4.58V14.5A4.58,4.58,0,0,0,60.85,9.92ZM8,11.92H60.85a2.59,2.59,0,0,1,2.58,2.58V46.12h-58V14.5A2.59,2.59,0,0,1,8,11.92Zm38.4,53.2v.07H20.61v-.07c0-2.39,5.67-4.26,12.9-4.26a30.44,30.44,0,0,1,9.24,1.27C44.12,62.59,46.41,63.58,46.41,65.12Zm-5.55-5.55a38.35,38.35,0,0,0-14.69,0L26.9,56H40.12Zm20-5.56H8a2.59,2.59,0,0,1-2.58-2.58V48.12h58v3.31A2.59,2.59,0,0,1,60.85,54Z" transform="translate(-2.43 -8.92)"/><path class="cls-1" d="M48.64,49.85h0a1,1,0,1,0,1,1A1,1,0,0,0,48.63,49.85Z" transform="translate(-2.43 -8.92)"/><path class="cls-1" d="M53.64,49.85h0a1,1,0,1,0,1,1A1,1,0,0,0,53.63,49.85Z" transform="translate(-2.43 -8.92)"/><path class="cls-1" d="M58.64,49.85h0a1,1,0,1,0,1,1A1,1,0,0,0,58.63,49.85Z" transform="translate(-2.43 -8.92)"/></svg>