<svg id="Calque_1" data-name="Calque 1" xmlns="http://www.w3.org/2000/svg" viewBox="0 0 20 20"><defs><style>.cls-1{fill:#4e58ab;}</style></defs><path class="cls-1" d="M595.58,104.3a6,6,0,1,0,6,6A6,6,0,0,0,595.58,104.3Zm0,10a4,4,0,1,1,4-4A4,4,0,0,1,595.58,114.3Z" transform="translate(-585.58 -100.3)"/><rect class="cls-1" x="588.58" y="102.88" width="2" height="2.83" transform="translate(-486.65 347.15) rotate(-45)"/><rect class="cls-1" x="600.58" y="114.88" width="2" height="2.83" transform="translate(-491.62 359.15) rotate(-45)"/><rect class="cls-1" x="600.16" y="103.3" width="2.83" height="2" transform="translate(-483.13 355.63) rotate(-45)"/><rect class="cls-1" x="588.16" y="115.3" width="2.83" height="2" transform="translate(-495.13 350.66) rotate(-45)"/><rect class="cls-1" y="9" width="3" height="2"/><rect class="cls-1" x="17" y="9" width="3" height="2"/><rect class="cls-1" x="9" width="2" height="3"/><rect class="cls-1" x="9" y="17" width="2" height="3"/></svg>