<?xml version="1.0" encoding="utf-8"?>
<!-- Generator: Adobe Illustrator 24.2.1, SVG Export Plug-In . SVG Version: 6.00 Build 0)  -->
<svg version="1.1" id="Calque_1" xmlns="http://www.w3.org/2000/svg" xmlns:xlink="http://www.w3.org/1999/xlink" x="0px" y="0px"
	 viewBox="0 0 269.7 253.2" style="enable-background:new 0 0 269.7 253.2;" xml:space="preserve">
<style type="text/css">
	.st0{opacity:1.000000e-02;fill:#4E58AB;enable-background:new    ;}
	.st1{fill:#4E58AB;}
</style>
<g id="Layer_2">
	<g id="Layer_1-2">
		<rect class="st0" width="269.7" height="253.2"/>
		<path class="st1" d="M134.8,82.2c-24.5,0-44.3,19.8-44.4,44.3s19.8,44.3,44.3,44.4c24.5,0,44.3-19.8,44.4-44.3c0,0,0,0,0-0.1
			C179.1,102.1,159.3,82.2,134.8,82.2z M134.8,158.2c-17.5,0-31.7-14.1-31.7-31.6c0-17.5,14.1-31.7,31.6-31.7s31.7,14.1,31.7,31.6
			c0,0,0,0,0,0C166.4,144,152.3,158.1,134.8,158.2L134.8,158.2z M236,126.5c0-2.1-1.1-4.1-2.8-5.2l-32.7-21.9l7.7-38.7
			c0.4-2.1-0.2-4.2-1.7-5.7c-1.5-1.5-3.6-2.2-5.7-1.7L162,60.8L140.1,28c-2.2-2.9-6.3-3.5-9.2-1.3c-0.5,0.4-1,0.8-1.3,1.3
			l-21.9,32.8L69,53.1c-2.1-0.4-4.2,0.2-5.7,1.7c-1.5,1.5-2.1,3.6-1.7,5.7l7.7,38.7l-32.8,21.9c-2.9,1.9-3.7,5.9-1.7,8.8
			c0.5,0.7,1.1,1.3,1.7,1.7l32.8,21.9l-7.7,38.7c-0.4,2.1,0.2,4.2,1.7,5.7c1.5,1.5,3.6,2.2,5.7,1.7l38.7-7.7l21.9,32.8
			c1.2,1.8,3.1,2.8,5.3,2.8c2.1,0,4.1-1.1,5.2-2.8l21.9-32.8l38.7,7.7c2.1,0.5,4.2-0.2,5.7-1.7c1.5-1.5,2.1-3.6,1.7-5.7l-7.7-38.7
			l32.8-21.9C234.9,130.6,236,128.6,236,126.5z M189.9,145.5c-2.1,1.4-3.2,4-2.7,6.5l6.6,33.6l-33.5-6.6c-2.5-0.5-5.1,0.5-6.5,2.7
			l-19,28.5l-19-28.4c-1.2-1.8-3.1-2.8-5.2-2.8c-0.4,0-0.8,0-1.2,0.1l-33.5,6.7l6.6-33.6c0.5-2.5-0.6-5.1-2.7-6.5l-28.4-19
			l28.4-19.1c2.1-1.4,3.2-4,2.7-6.5l-6.6-33.6l33.5,6.7c2.5,0.5,5.1-0.5,6.5-2.7l19-28.5l19,28.5c1.4,2.1,4,3.2,6.5,2.7l33.5-6.7
			l-6.6,33.6c-0.5,2.5,0.6,5.1,2.7,6.5l28.4,19L189.9,145.5L189.9,145.5z"/>
	</g>
</g>
</svg>
